<svg id="visual" viewBox="0 0 900 600" width="900" height="600" xmlns="http://www.w3.org/2000/svg" xmlns:xlink="http://www.w3.org/1999/xlink" version="1.1"><path d="M376 0L345.2 9.2C314.3 18.3 252.7 36.7 215.3 54.8C178 73 165 91 147.8 109.2C130.7 127.3 109.3 145.7 135 163.8C160.7 182 233.3 200 237 218.2C240.7 236.3 175.3 254.7 183.7 272.8C192 291 274 309 298.5 327.2C323 345.3 290 363.7 284.3 381.8C278.7 400 300.3 418 288.8 436.2C277.3 454.3 232.7 472.7 204.7 490.8C176.7 509 165.3 527 167.5 545.2C169.7 563.3 185.3 581.7 193.2 590.8L201 600L0 600L0 590.8C0 581.7 0 563.3 0 545.2C0 527 0 509 0 490.8C0 472.7 0 454.3 0 436.2C0 418 0 400 0 381.8C0 363.7 0 345.3 0 327.2C0 309 0 291 0 272.8C0 254.7 0 236.3 0 218.2C0 200 0 182 0 163.8C0 145.7 0 127.3 0 109.2C0 91 0 73 0 54.8C0 36.7 0 18.3 0 9.2L0 0Z" fill="#222" stroke-linecap="round" stroke-linejoin="miter"></path></svg>