<svg id="visual" viewBox="0 0 900 600" width="900" height="600" xmlns="http://www.w3.org/2000/svg" xmlns:xlink="http://www.w3.org/1999/xlink" version="1.1"><rect x="0" y="0" width="900" height="600" fill="#ffffff"></rect><defs><linearGradient id="grad1_0" x1="33.3%" y1="100%" x2="100%" y2="0%"><stop offset="20%" stop-color="#715df2" stop-opacity="1"></stop><stop offset="80%" stop-color="#715df2" stop-opacity="1"></stop></linearGradient></defs><defs><linearGradient id="grad1_1" x1="33.3%" y1="100%" x2="100%" y2="0%"><stop offset="20%" stop-color="#715df2" stop-opacity="1"></stop><stop offset="80%" stop-color="#ffffff" stop-opacity="1"></stop></linearGradient></defs><defs><linearGradient id="grad2_0" x1="0%" y1="100%" x2="66.7%" y2="0%"><stop offset="20%" stop-color="#715df2" stop-opacity="1"></stop><stop offset="80%" stop-color="#715df2" stop-opacity="1"></stop></linearGradient></defs><defs><linearGradient id="grad2_1" x1="0%" y1="100%" x2="66.7%" y2="0%"><stop offset="20%" stop-color="#ffffff" stop-opacity="1"></stop><stop offset="80%" stop-color="#715df2" stop-opacity="1"></stop></linearGradient></defs><g transform="translate(900, 600)"><path d="M-432.7 0C-405.3 -51.7 -378 -103.4 -349.2 -144.7C-320.4 -185.9 -290.2 -216.6 -262.3 -262.3C-234.5 -308.1 -208.9 -368.8 -165.6 -399.7C-122.2 -430.6 -61.1 -431.6 0 -432.7L0 0Z" fill="#c1acfa"></path><path d="M-216.3 0C-202.7 -25.9 -189 -51.7 -174.6 -72.3C-160.2 -92.9 -145.1 -108.3 -131.2 -131.2C-117.2 -154 -104.5 -184.4 -82.8 -199.9C-61.1 -215.3 -30.6 -215.8 0 -216.3L0 0Z" fill="#715df2"></path></g><g transform="translate(0, 0)"><path d="M432.7 0C412.6 49.3 392.5 98.6 376 155.8C359.6 212.9 346.7 277.9 305.9 305.9C265.2 334 196.5 325 140.8 340C85.2 354.9 42.6 393.8 0 432.7L0 0Z" fill="#c1acfa"></path><path d="M216.3 0C206.3 24.6 196.2 49.3 188 77.9C179.8 106.5 173.4 139 153 153C132.6 167 98.2 162.5 70.4 170C42.6 177.5 21.3 196.9 0 216.3L0 0Z" fill="#715df2"></path></g></svg>