<svg id="visual" viewBox="0 0 900 600" width="900" height="600" xmlns="http://www.w3.org/2000/svg" xmlns:xlink="http://www.w3.org/1999/xlink" version="1.1"><path d="M158 0L182.2 9.2C206.3 18.3 254.7 36.7 244.2 54.8C233.7 73 164.3 91 163.2 109.2C162 127.3 229 145.7 271.3 163.8C313.7 182 331.3 200 331 218.2C330.7 236.3 312.3 254.7 315.8 272.8C319.3 291 344.7 309 371.5 327.2C398.3 345.3 426.7 363.7 435.3 381.8C444 400 433 418 418 436.2C403 454.3 384 472.7 374.2 490.8C364.3 509 363.7 527 374.8 545.2C386 563.3 409 581.7 420.5 590.8L432 600L0 600L0 590.8C0 581.7 0 563.3 0 545.2C0 527 0 509 0 490.8C0 472.7 0 454.3 0 436.2C0 418 0 400 0 381.8C0 363.7 0 345.3 0 327.2C0 309 0 291 0 272.8C0 254.7 0 236.3 0 218.2C0 200 0 182 0 163.8C0 145.7 0 127.3 0 109.2C0 91 0 73 0 54.8C0 36.7 0 18.3 0 9.2L0 0Z" fill="#002233" stroke-linecap="round" stroke-linejoin="miter"></path></svg>