<svg id="visual" viewBox="0 0 900 600" width="900" height="600" xmlns="http://www.w3.org/2000/svg" xmlns:xlink="http://www.w3.org/1999/xlink" version="1.1"><path d="M307 0L292.5 8.3C278 16.7 249 33.3 227.3 50C205.7 66.7 191.3 83.3 189.2 100C187 116.7 197 133.3 208 150C219 166.7 231 183.3 227.8 200C224.7 216.7 206.3 233.3 191.3 250C176.3 266.7 164.7 283.3 152.8 300C141 316.7 129 333.3 143.8 350C158.7 366.7 200.3 383.3 207 400C213.7 416.7 185.3 433.3 167.7 450C150 466.7 143 483.3 156.2 500C169.3 516.7 202.7 533.3 238.7 550C274.7 566.7 313.3 583.3 332.7 591.7L352 600L0 600L0 591.7C0 583.3 0 566.7 0 550C0 533.3 0 516.7 0 500C0 483.3 0 466.7 0 450C0 433.3 0 416.7 0 400C0 383.3 0 366.7 0 350C0 333.3 0 316.7 0 300C0 283.3 0 266.7 0 250C0 233.3 0 216.7 0 200C0 183.3 0 166.7 0 150C0 133.3 0 116.7 0 100C0 83.3 0 66.7 0 50C0 33.3 0 16.7 0 8.3L0 0Z" fill="#144767" stroke-linecap="round" stroke-linejoin="miter"></path></svg>