<svg id="visual" viewBox="0 0 900 600" width="900" height="600" xmlns="http://www.w3.org/2000/svg" xmlns:xlink="http://www.w3.org/1999/xlink" version="1.1"><path d="M0 79L13.7 81C27.3 83 54.7 87 82 110C109.3 133 136.7 175 163.8 188C191 201 218 185 245.2 173C272.3 161 299.7 153 327 154C354.3 155 381.7 165 409 168C436.3 171 463.7 167 491 163C518.3 159 545.7 155 573 158C600.3 161 627.7 171 654.8 158C682 145 709 109 736.2 103C763.3 97 790.7 121 818 144C845.3 167 872.7 189 886.3 200L900 211L900 0L886.3 0C872.7 0 845.3 0 818 0C790.7 0 763.3 0 736.2 0C709 0 682 0 654.8 0C627.7 0 600.3 0 573 0C545.7 0 518.3 0 491 0C463.7 0 436.3 0 409 0C381.7 0 354.3 0 327 0C299.7 0 272.3 0 245.2 0C218 0 191 0 163.8 0C136.7 0 109.3 0 82 0C54.7 0 27.3 0 13.7 0L0 0Z" fill="#7ed581"></path><path d="M0 127L13.7 133C27.3 139 54.7 151 82 172C109.3 193 136.7 223 163.8 236C191 249 218 245 245.2 243C272.3 241 299.7 241 327 237C354.3 233 381.7 225 409 222C436.3 219 463.7 221 491 225C518.3 229 545.7 235 573 236C600.3 237 627.7 233 654.8 212C682 191 709 153 736.2 153C763.3 153 790.7 191 818 213C845.3 235 872.7 241 886.3 244L900 247L900 209L886.3 198C872.7 187 845.3 165 818 142C790.7 119 763.3 95 736.2 101C709 107 682 143 654.8 156C627.7 169 600.3 159 573 156C545.7 153 518.3 157 491 161C463.7 165 436.3 169 409 166C381.7 163 354.3 153 327 152C299.7 151 272.3 159 245.2 171C218 183 191 199 163.8 186C136.7 173 109.3 131 82 108C54.7 85 27.3 81 13.7 79L0 77Z" fill="#d1f0cf"></path><path d="M0 361L13.7 362C27.3 363 54.7 365 82 383C109.3 401 136.7 435 163.8 439C191 443 218 417 245.2 416C272.3 415 299.7 439 327 432C354.3 425 381.7 387 409 374C436.3 361 463.7 373 491 384C518.3 395 545.7 405 573 409C600.3 413 627.7 411 654.8 400C682 389 709 369 736.2 379C763.3 389 790.7 429 818 432C845.3 435 872.7 401 886.3 384L900 367L900 245L886.3 242C872.7 239 845.3 233 818 211C790.7 189 763.3 151 736.2 151C709 151 682 189 654.8 210C627.7 231 600.3 235 573 234C545.7 233 518.3 227 491 223C463.7 219 436.3 217 409 220C381.7 223 354.3 231 327 235C299.7 239 272.3 239 245.2 241C218 243 191 247 163.8 234C136.7 221 109.3 191 82 170C54.7 149 27.3 137 13.7 131L0 125Z" fill="#ffffff"></path><path d="M0 475L13.7 476C27.3 477 54.7 479 82 489C109.3 499 136.7 517 163.8 513C191 509 218 483 245.2 484C272.3 485 299.7 513 327 514C354.3 515 381.7 489 409 480C436.3 471 463.7 479 491 490C518.3 501 545.7 515 573 514C600.3 513 627.7 497 654.8 485C682 473 709 465 736.2 475C763.3 485 790.7 513 818 519C845.3 525 872.7 509 886.3 501L900 493L900 365L886.3 382C872.7 399 845.3 433 818 430C790.7 427 763.3 387 736.2 377C709 367 682 387 654.8 398C627.7 409 600.3 411 573 407C545.7 403 518.3 393 491 382C463.7 371 436.3 359 409 372C381.7 385 354.3 423 327 430C299.7 437 272.3 413 245.2 414C218 415 191 441 163.8 437C136.7 433 109.3 399 82 381C54.7 363 27.3 361 13.7 360L0 359Z" fill="#d1f0cf"></path><path d="M0 601L13.7 601C27.3 601 54.7 601 82 601C109.3 601 136.7 601 163.8 601C191 601 218 601 245.2 601C272.3 601 299.7 601 327 601C354.3 601 381.7 601 409 601C436.3 601 463.7 601 491 601C518.3 601 545.7 601 573 601C600.3 601 627.7 601 654.8 601C682 601 709 601 736.2 601C763.3 601 790.7 601 818 601C845.3 601 872.7 601 886.3 601L900 601L900 491L886.3 499C872.7 507 845.3 523 818 517C790.7 511 763.3 483 736.2 473C709 463 682 471 654.8 483C627.7 495 600.3 511 573 512C545.7 513 518.3 499 491 488C463.7 477 436.3 469 409 478C381.7 487 354.3 513 327 512C299.7 511 272.3 483 245.2 482C218 481 191 507 163.8 511C136.7 515 109.3 497 82 487C54.7 477 27.3 475 13.7 474L0 473Z" fill="#7ed581"></path></svg>