<svg id="visual" viewBox="0 0 900 600" width="900" height="600" xmlns="http://www.w3.org/2000/svg" xmlns:xlink="http://www.w3.org/1999/xlink" version="1.1"><path d="M0 389L25 401.5C50 414 100 439 150 451.8C200 464.7 250 465.3 300 464.3C350 463.3 400 460.7 450 455C500 449.3 550 440.7 600 445.3C650 450 700 468 750 477.5C800 487 850 488 875 488.5L900 489L900 601L875 601C850 601 800 601 750 601C700 601 650 601 600 601C550 601 500 601 450 601C400 601 350 601 300 601C250 601 200 601 150 601C100 601 50 601 25 601L0 601Z" fill="#FFFFFF" stroke-linecap="round" stroke-linejoin="miter"></path></svg>